leg6dof9musc_added_mass_states
version=1
nRows=17
nColumns=33
inDegrees=yes

# SIMM Motion File Header:
name leg6dof9musc_added_mass_states
datacolumns 33
datarows 17
otherdata 1
range 1.04430492 1.06207057
endheader
time	pelvis_tilt	pelvis_tx	pelvis_ty	hip_flexion_r	knee_angle_r	knee_angle_pat_r	ankle_angle_r	pelvis_tilt_u	pelvis_tx_u	pelvis_ty_u	hip_flexion_r_u	knee_angle_r_u	knee_angle_pat_r_u	ankle_angle_r_u	bifemlh_r.activation	bifemlh_r.fiber_length	bifemsh_r.activation	bifemsh_r.fiber_length	glut_max2_r.activation	glut_max2_r.fiber_length	psoas_r.activation	psoas_r.fiber_length	rect_fem_r.activation	rect_fem_r.fiber_length	vas_int_r.activation	vas_int_r.fiber_length	med_gas_r.activation	med_gas_r.fiber_length	soleus_r.activation	soleus_r.fiber_length	tib_ant_r.activation	tib_ant_r.fiber_length
      1.04430492	     -0.21510413	      0.01965020	      1.08476611	      1.14266980	    -13.78606029	    -13.78605605	     13.11684754	    -21.51802636	     -0.13791635	     -0.07624479	    -54.07535994	     29.41433237	     29.41433237	     15.28211672	      0.11173460	      0.09914990	      0.02000000	      0.19197551	      0.06023980	      0.08991499	      0.06284801	      0.10670755	      0.03828771	      0.12585276	      0.02575292	      0.08999280	      0.18618115	      0.10776042	      0.18004949	      0.09843938	      0.02002291	      0.08005758
      1.04607086	     -0.25264576	      0.01940627	      1.08462991	      1.04667641	    -13.73453927	    -13.73453503	     13.14924910	    -20.98410821	     -0.13834979	     -0.07799109	    -54.65861840	     28.92425254	     28.92425254	     21.79354464	      0.10868668	      0.09911162	      0.02000000	      0.19200190	      0.06002842	      0.08981754	      0.06099749	      0.10679873	      0.03749790	      0.12590102	      0.02550447	      0.08995160	      0.18150895	      0.10776373	      0.17787700	      0.09847244	      0.02002192	      0.08003000
      1.04743019	     -0.28086347	      0.01921799	      1.08452301	      0.97203774	    -13.69548307	    -13.69547883	     13.18275971	    -20.52974438	     -0.13866683	     -0.07928890	    -55.16313501	     28.54643957	     28.54643957	     27.45121785	      0.10643049	      0.09908475	      0.02000000	      0.19202196	      0.05987195	      0.08974147	      0.05962766	      0.10686946	      0.03691325	      0.12593897	      0.02532055	      0.08991994	      0.17805041	      0.10777093	      0.17626883	      0.09849925	      0.02002119	      0.08000857
      1.04910850	     -0.31484395	      0.01898495	      1.08438862	      0.87891301	    -13.64789829	    -13.64789406	     13.23381849	    -19.96683494	     -0.13903197	     -0.08085035	    -55.81424221	     28.18490959	     28.18490959	     33.03281032	      0.10374860	      0.09905406	      0.02000000	      0.19204641	      0.05968595	      0.08964633	      0.05799937	      0.10695719	      0.03621829	      0.12598674	      0.02510193	      0.08988103	      0.17393930	      0.10778649	      0.17435724	      0.09853508	      0.02002032	      0.07998061
      1.05000000	     -0.33251532	      0.01886092	      1.08431618	      0.82899894	    -13.62282972	    -13.62282549	     13.26421497	    -19.67932541	     -0.13921251	     -0.08166949	    -56.16383615	     28.06317493	     28.06317493	     35.04497262	      0.10236912	      0.09903867	      0.02000000	      0.19205925	      0.05959028	      0.08959525	      0.05716183	      0.10700394	      0.03586083	      0.12601250	      0.02498948	      0.08986047	      0.17182468	      0.10779818	      0.17337398	      0.09855564	      0.02001987	      0.07996477
      1.05014814	     -0.33542717	      0.01884030	      1.08430407	      0.82067456	    -13.61867359	    -13.61866935	     13.26942661	    -19.63290062	     -0.13924156	     -0.08180553	    -56.22163637	     28.04806080	     28.04806080	     35.31297077	      0.10262012	      0.09903612	      0.02015782	      0.19206131	      0.05946567	      0.08958675	      0.05702446	      0.10701172	      0.03580220	      0.12601680	      0.02497103	      0.08985706	      0.17176607	      0.10780036	      0.17351355	      0.09855915	      0.02001979	      0.07996206
      1.05029628	     -0.33833218	      0.01881967	      1.08429194	      0.81234164	    -13.61451958	    -13.61451535	     13.27467651	    -19.58717606	     -0.13927034	     -0.08194189	    -56.27898469	     28.03436519	     28.03436519	     35.56128245	      0.10296179	      0.09903346	      0.02034460	      0.19206321	      0.05931978	      0.08957829	      0.05688759	      0.10701950	      0.03574378	      0.12602111	      0.02495266	      0.08985365	      0.17176519	      0.10780257	      0.17371053	      0.09856264	      0.02001972	      0.07995933
      1.05103698	     -0.35275842	      0.01871646	      1.08423099	      0.77055134	    -13.59377397	    -13.59376974	     13.30138828	    -19.36857135	     -0.13941017	     -0.08262706	    -56.55952936	     27.98829761	     27.98829761	     36.46573764	      0.10459621	      0.09901855	      0.02123810	      0.19207071	      0.05859838	      0.08953661	      0.05621081	      0.10705844	      0.03545493	      0.12604277	      0.02486179	      0.08983664	      0.17176086	      0.10781421	      0.17465281	      0.09857989	      0.02001936	      0.07994534
      1.05275224	     -0.38558305	      0.01847707	      1.08408790	      0.67300035	    -13.54575841	    -13.54575418	     13.36404084	    -18.91564153	     -0.13970931	     -0.08421433	    -57.18078982	     28.03326904	     28.03326904	     35.94543533	      0.10794705	      0.09897486	      0.02306993	      0.19208136	      0.05697821	      0.08944292	      0.05469086	      0.10714881	      0.03480621	      0.12609348	      0.02465772	      0.08979738	      0.17175114	      0.10784474	      0.17658463	      0.09861896	      0.02001855	      0.07991088
      1.05446749	     -0.41767030	      0.01823720	      1.08394212	      0.57439472	    -13.49749692	    -13.49749268	     13.42267185	    -18.49919092	     -0.13997720	     -0.08576431	    -57.79825075	     28.26471596	     28.26471596	     32.00027021	      0.11076972	      0.09892062	      0.02461303	      0.19208908	      0.05542605	      0.08935143	      0.05323471	      0.10723944	      0.03418472	      0.12614482	      0.02446221	      0.08975819	      0.17174183	      0.10788007	      0.17821196	      0.09865716	      0.02001777	      0.07987414
      1.05599042	     -0.44555138	      0.01802386	      1.08381049	      0.48592894	    -13.45423612	    -13.45423188	     13.46790930	    -18.10876349	     -0.14019309	     -0.08708603	    -58.39011291	     28.55403932	     28.55403932	     27.39255210	      0.11290072	      0.09886558	      0.02577800	      0.19209624	      0.05410262	      0.08927087	      0.05199314	      0.10732008	      0.03365481	      0.12619077	      0.02429551	      0.08972332	      0.17173389	      0.10791479	      0.17944053	      0.09869005	      0.02001710	      0.07984064
      1.05751335	     -0.47279691	      0.01781020	      1.08367690	      0.39650944	    -13.41052437	    -13.41052013	     13.50640736	    -17.65947729	     -0.14039172	     -0.08834363	    -59.05437380	     28.84620016	     28.84620016	     23.34498114	      0.11473069	      0.09880549	      0.02677840	      0.19210468	      0.05282862	      0.08919022	      0.05079796	      0.10740092	      0.03314470	      0.12623690	      0.02413504	      0.08968824	      0.17172625	      0.10795184	      0.18049554	      0.09872151	      0.02001647	      0.07980733
      1.05937766	     -0.50512049	      0.01754826	      1.08351084	      0.28556220	    -13.35646169	    -13.35645745	     13.54685327	    -16.99237569	     -0.14061409	     -0.08978235	    -59.99439905	     29.13501597	     29.13501597	     20.56877160	      0.11662276	      0.09872668	      0.02781276	      0.19211725	      0.05133367	      0.08909070	      0.04939547	      0.10750022	      0.03254611	      0.12629351	      0.02394674	      0.08964490	      0.17171728	      0.10799923	      0.18158636	      0.09875766	      0.02001572	      0.07976781
      1.06000000	     -0.51561643	      0.01746073	      1.08345482	      0.24811701	    -13.33830638	    -13.33830214	     13.55958713	    -16.73514372	     -0.14068341	     -0.09023612	    -60.34559654	     29.20840067	     29.20840067	     20.42324847	      0.11717980	      0.09869934	      0.02811728	      0.19212201	      0.05084994	      0.08905717	      0.04894166	      0.10753347	      0.03235243	      0.12631242	      0.02388581	      0.08963032	      0.17171438	      0.10801541	      0.18190751	      0.09876915	      0.02001547	      0.07975502
      1.06029580	     -0.52054770	      0.01741911	      1.08342810	      0.23024144	    -13.32966200	    -13.32965776	     13.56563715	    -16.60666327	     -0.14071537	     -0.09044718	    -60.51940373	     29.23949797	     29.23949797	     20.49908984	      0.11697837	      0.09868627	      0.02841073	      0.19212429	      0.05062265	      0.08904116	      0.04872843	      0.10754930	      0.03226142	      0.12632141	      0.02385718	      0.08962338	      0.17161610	      0.10802316	      0.18160790	      0.09877457	      0.02001536	      0.07974901
      1.06059159	     -0.52544044	      0.01737748	      1.08340131	      0.21231386	    -13.32100878	    -13.32100454	     13.57172332	    -16.47460848	     -0.14074654	     -0.09065583	    -60.69716210	     29.26813717	     29.26813717	     20.66761733	      0.11668740	      0.09867334	      0.02872613	      0.19212642	      0.05039703	      0.08902512	      0.04851677	      0.10756514	      0.03217108	      0.12633040	      0.02382876	      0.08961642	      0.17149925	      0.10803098	      0.18122148	      0.09878004	      0.02001525	      0.07974305
      1.06207057	     -0.54929464	      0.01716921	      1.08326648	      0.12186193	    -13.27763681	    -13.27763257	     13.60363254	    -15.77356043	     -0.14089020	     -0.09167639	    -61.62964546	     29.37293364	     29.37293364	     22.81769468	      0.11526442	      0.09861060	      0.03017043	      0.19213578	      0.04929364	      0.08894414	      0.04748163	      0.10764459	      0.03172928	      0.12637541	      0.02368978	      0.08958143	      0.17092780	      0.10807112	      0.17933171	      0.09880832	      0.02001469	      0.07971375
